<mxfile host="app.diagrams.net" agent="Mozilla/5.0 (Windows NT 10.0; Win64; x64) AppleWebKit/537.36 (KHTML, like Gecko) Chrome/131.0.0.0 Safari/537.36" version="24.9.2">
  <diagram name="페이지-1" id="x3CDRDTqpfboEJPPk2nD">
    <mxGraphModel dx="608" dy="1977" grid="0" gridSize="10" guides="1" tooltips="1" connect="1" arrows="1" fold="1" page="1" pageScale="1" pageWidth="827" pageHeight="1169" background="#ffffff" math="0" shadow="0">
      <root>
        <mxCell id="0" />
        <mxCell id="1" parent="0" />
        <mxCell id="7Y47-iIJUgCRWdnua4mY-2" value="&lt;b&gt;Server&lt;/b&gt;" style="shape=umlActor;verticalLabelPosition=bottom;verticalAlign=top;html=1;outlineConnect=0;" parent="1" vertex="1">
          <mxGeometry x="205" y="-1100" width="30" height="60" as="geometry" />
        </mxCell>
        <mxCell id="7Y47-iIJUgCRWdnua4mY-3" value="" style="rounded=0;whiteSpace=wrap;html=1;" parent="1" vertex="1">
          <mxGeometry x="80" y="-1000" width="600" height="590" as="geometry" />
        </mxCell>
        <mxCell id="7Y47-iIJUgCRWdnua4mY-4" value="" style="rounded=0;whiteSpace=wrap;html=1;" parent="1" vertex="1">
          <mxGeometry x="87" y="-800" width="557.5" height="260" as="geometry" />
        </mxCell>
        <mxCell id="7Y47-iIJUgCRWdnua4mY-5" value="" style="rounded=0;whiteSpace=wrap;html=1;" parent="1" vertex="1">
          <mxGeometry x="215" y="-970" width="10" height="490" as="geometry" />
        </mxCell>
        <mxCell id="7Y47-iIJUgCRWdnua4mY-6" value="" style="rounded=0;whiteSpace=wrap;html=1;" parent="1" vertex="1">
          <mxGeometry x="375" y="-938" width="10" height="458" as="geometry" />
        </mxCell>
        <mxCell id="7Y47-iIJUgCRWdnua4mY-7" value="" style="rounded=0;whiteSpace=wrap;html=1;" parent="1" vertex="1">
          <mxGeometry x="560" y="-950" width="10" height="470" as="geometry" />
        </mxCell>
        <mxCell id="7Y47-iIJUgCRWdnua4mY-8" value="&lt;b&gt;AI시착 이미지 생성&lt;/b&gt;" style="rounded=0;whiteSpace=wrap;html=1;" parent="1" vertex="1">
          <mxGeometry x="335" y="-1070" width="90" height="30" as="geometry" />
        </mxCell>
        <mxCell id="7Y47-iIJUgCRWdnua4mY-9" value="" style="endArrow=none;dashed=1;html=1;rounded=0;entryX=0.5;entryY=1;entryDx=0;entryDy=0;exitX=0.5;exitY=0;exitDx=0;exitDy=0;" parent="1" source="7Y47-iIJUgCRWdnua4mY-6" target="7Y47-iIJUgCRWdnua4mY-8" edge="1">
          <mxGeometry width="50" height="50" relative="1" as="geometry">
            <mxPoint x="550" y="-800" as="sourcePoint" />
            <mxPoint x="600" y="-850" as="targetPoint" />
          </mxGeometry>
        </mxCell>
        <mxCell id="7Y47-iIJUgCRWdnua4mY-10" value="" style="endArrow=none;dashed=1;html=1;rounded=0;" parent="1" source="7Y47-iIJUgCRWdnua4mY-5" edge="1">
          <mxGeometry width="50" height="50" relative="1" as="geometry">
            <mxPoint x="550" y="-800" as="sourcePoint" />
            <mxPoint x="220" y="-1020" as="targetPoint" />
          </mxGeometry>
        </mxCell>
        <mxCell id="7Y47-iIJUgCRWdnua4mY-11" value="&lt;b&gt;이미지 생성 모델&lt;/b&gt;" style="rounded=0;whiteSpace=wrap;html=1;" parent="1" vertex="1">
          <mxGeometry x="513" y="-1070" width="104" height="30" as="geometry" />
        </mxCell>
        <mxCell id="7Y47-iIJUgCRWdnua4mY-12" value="" style="endArrow=none;dashed=1;html=1;rounded=0;entryX=0.5;entryY=1;entryDx=0;entryDy=0;exitX=0.5;exitY=0;exitDx=0;exitDy=0;" parent="1" source="7Y47-iIJUgCRWdnua4mY-7" target="7Y47-iIJUgCRWdnua4mY-11" edge="1">
          <mxGeometry width="50" height="50" relative="1" as="geometry">
            <mxPoint x="550" y="-800" as="sourcePoint" />
            <mxPoint x="600" y="-850" as="targetPoint" />
          </mxGeometry>
        </mxCell>
        <mxCell id="7Y47-iIJUgCRWdnua4mY-13" value="" style="endArrow=classic;html=1;rounded=0;exitX=1.2;exitY=0.152;exitDx=0;exitDy=0;exitPerimeter=0;" parent="1" source="7Y47-iIJUgCRWdnua4mY-5" edge="1">
          <mxGeometry width="50" height="50" relative="1" as="geometry">
            <mxPoint x="550" y="-800" as="sourcePoint" />
            <mxPoint x="371" y="-896" as="targetPoint" />
          </mxGeometry>
        </mxCell>
        <mxCell id="7Y47-iIJUgCRWdnua4mY-14" value="&lt;b&gt;이미지 생성 요청&lt;/b&gt;" style="text;html=1;align=center;verticalAlign=middle;whiteSpace=wrap;rounded=0;" parent="1" vertex="1">
          <mxGeometry x="235" y="-930" width="135" height="30" as="geometry" />
        </mxCell>
        <mxCell id="7Y47-iIJUgCRWdnua4mY-27" value="" style="endArrow=classic;html=1;rounded=0;exitX=-0.112;exitY=0.667;exitDx=0;exitDy=0;exitPerimeter=0;entryX=1.039;entryY=0.618;entryDx=0;entryDy=0;entryPerimeter=0;dashed=1;" parent="1" edge="1">
          <mxGeometry width="50" height="50" relative="1" as="geometry">
            <mxPoint x="553.4900000000001" y="-733" as="sourcePoint" />
            <mxPoint x="380.0000000000001" y="-732.9100000000001" as="targetPoint" />
          </mxGeometry>
        </mxCell>
        <mxCell id="7Y47-iIJUgCRWdnua4mY-28" value="&lt;b&gt;Reply Data&lt;/b&gt;&lt;div&gt;&lt;b&gt;&lt;br&gt;&lt;/b&gt;&lt;/div&gt;&lt;div&gt;&lt;b&gt;(&lt;/b&gt;&lt;b style=&quot;background-color: initial;&quot;&gt;생성된 AI모델 이미지)&lt;/b&gt;&lt;/div&gt;" style="text;html=1;align=center;verticalAlign=middle;whiteSpace=wrap;rounded=0;" parent="1" vertex="1">
          <mxGeometry x="407.75" y="-740" width="130" height="30" as="geometry" />
        </mxCell>
        <mxCell id="7Y47-iIJUgCRWdnua4mY-29" value="" style="endArrow=classic;html=1;rounded=0;exitX=-0.112;exitY=0.667;exitDx=0;exitDy=0;exitPerimeter=0;entryX=1.054;entryY=0.966;entryDx=0;entryDy=0;entryPerimeter=0;dashed=1;" parent="1" edge="1">
          <mxGeometry width="50" height="50" relative="1" as="geometry">
            <mxPoint x="377" y="-725.5" as="sourcePoint" />
            <mxPoint x="228" y="-725.5" as="targetPoint" />
          </mxGeometry>
        </mxCell>
        <mxCell id="7Y47-iIJUgCRWdnua4mY-30" value="&lt;b&gt;이미지 생성 완료&lt;/b&gt;" style="text;html=1;align=center;verticalAlign=middle;whiteSpace=wrap;rounded=0;" parent="1" vertex="1">
          <mxGeometry x="235" y="-757" width="130" height="30" as="geometry" />
        </mxCell>
        <mxCell id="7Y47-iIJUgCRWdnua4mY-32" value="OPT&lt;span style=&quot;color: rgba(0, 0, 0, 0); font-family: monospace; font-size: 0px; text-align: start; text-wrap: nowrap;&quot;&gt;%3CmxGraphModel%3E%3Croot%3E%3CmxCell%20id%3D%220%22%2F%3E%3CmxCell%20id%3D%221%22%20parent%3D%220%22%2F%3E%3CmxCell%20id%3D%222%22%20value%3D%22%ED%9A%8C%EC%9B%90%EA%B0%80%EC%9E%85%20%EC%9A%94%EC%B2%AD%26lt%3Bdiv%26gt%3B(ID%2C%20%EB%B9%84%EB%B0%80%EB%B2%88%ED%98%B8%2C%20%EB%8B%89%EB%84%A4%EC%9E%84%2C%20%EC%9D%B4%EB%A6%84%2C%20%EC%84%B1%EB%B3%84%2C%20%EC%9D%B4%EB%A9%94%EC%9D%BC)%26lt%3B%2Fdiv%26gt%3B%22%20style%3D%22text%3Bhtml%3D1%3Balign%3Dcenter%3BverticalAlign%3Dmiddle%3BwhiteSpace%3Dwrap%3Brounded%3D0%3B%22%20vertex%3D%221%22%20parent%3D%221%22%3E%3CmxGeometry%20x%3D%22235%22%20y%3D%22-820%22%20width%3D%22125%22%20height%3D%2230%22%20as%3D%22geometry%22%2F%3E%3C%2FmxCell%3E%3C%2Froot%3E%3C%2FmxGraphModel%3E&lt;/span&gt;" style="shape=delay;whiteSpace=wrap;html=1;" parent="1" vertex="1">
          <mxGeometry x="80" y="-1000" width="80" height="30" as="geometry" />
        </mxCell>
        <mxCell id="7Y47-iIJUgCRWdnua4mY-33" value="ALT" style="shape=delay;whiteSpace=wrap;html=1;" parent="1" vertex="1">
          <mxGeometry x="87" y="-800" width="80" height="30" as="geometry" />
        </mxCell>
        <mxCell id="aqkRpfTvIbTsVpuNfiw0-3" value="&lt;b&gt;이미지 생성 요청&lt;/b&gt;" style="text;html=1;align=center;verticalAlign=middle;whiteSpace=wrap;rounded=0;" vertex="1" parent="1">
          <mxGeometry x="401" y="-914" width="150" height="30" as="geometry" />
        </mxCell>
        <mxCell id="aqkRpfTvIbTsVpuNfiw0-5" value="" style="endArrow=classic;html=1;rounded=0;" edge="1" parent="1">
          <mxGeometry width="50" height="50" relative="1" as="geometry">
            <mxPoint x="381" y="-880" as="sourcePoint" />
            <mxPoint x="551" y="-880" as="targetPoint" />
          </mxGeometry>
        </mxCell>
        <mxCell id="aqkRpfTvIbTsVpuNfiw0-12" value="&lt;span style=&quot;font-size: 11px;&quot;&gt;&lt;b&gt;[이미지 생성 = 성공]&lt;/b&gt;&lt;/span&gt;" style="text;html=1;align=center;verticalAlign=middle;whiteSpace=wrap;rounded=0;fontColor=#3333FF;" vertex="1" parent="1">
          <mxGeometry x="215" y="-797" width="145" height="30" as="geometry" />
        </mxCell>
        <mxCell id="aqkRpfTvIbTsVpuNfiw0-13" value="&lt;span style=&quot;font-size: 11px;&quot;&gt;&lt;b&gt;[이미지 생성 = 실패]&lt;/b&gt;&lt;/span&gt;" style="text;html=1;align=center;verticalAlign=middle;whiteSpace=wrap;rounded=0;fontColor=#3333FF;" vertex="1" parent="1">
          <mxGeometry x="217" y="-675" width="145" height="30" as="geometry" />
        </mxCell>
        <mxCell id="aqkRpfTvIbTsVpuNfiw0-18" value="&lt;b&gt;Reply Data&lt;/b&gt;&lt;div&gt;&lt;b&gt;(result = &quot;실패&quot;)&lt;/b&gt;&lt;/div&gt;" style="text;html=1;align=center;verticalAlign=middle;whiteSpace=wrap;rounded=0;" vertex="1" parent="1">
          <mxGeometry x="427.75" y="-660" width="90" height="30" as="geometry" />
        </mxCell>
        <mxCell id="aqkRpfTvIbTsVpuNfiw0-19" value="&lt;b&gt;에러 메시지&lt;/b&gt;&lt;div&gt;&lt;b&gt;&lt;br&gt;&lt;/b&gt;&lt;/div&gt;&lt;div&gt;&lt;b&gt;(&quot;에러 발생&quot;)&lt;/b&gt;&lt;/div&gt;" style="text;html=1;align=center;verticalAlign=middle;whiteSpace=wrap;rounded=0;" vertex="1" parent="1">
          <mxGeometry x="235" y="-624" width="130" height="30" as="geometry" />
        </mxCell>
        <mxCell id="aqkRpfTvIbTsVpuNfiw0-20" value="" style="endArrow=classic;html=1;rounded=0;exitX=-0.112;exitY=0.667;exitDx=0;exitDy=0;exitPerimeter=0;entryX=1.039;entryY=0.618;entryDx=0;entryDy=0;entryPerimeter=0;dashed=1;" edge="1" parent="1">
          <mxGeometry width="50" height="50" relative="1" as="geometry">
            <mxPoint x="556.7400000000001" y="-613" as="sourcePoint" />
            <mxPoint x="383.2500000000001" y="-612.9100000000001" as="targetPoint" />
          </mxGeometry>
        </mxCell>
        <mxCell id="aqkRpfTvIbTsVpuNfiw0-21" value="" style="endArrow=classic;html=1;rounded=0;dashed=1;" edge="1" parent="1">
          <mxGeometry width="50" height="50" relative="1" as="geometry">
            <mxPoint x="368" y="-610" as="sourcePoint" />
            <mxPoint x="230" y="-610" as="targetPoint" />
          </mxGeometry>
        </mxCell>
        <mxCell id="aqkRpfTvIbTsVpuNfiw0-24" value="" style="endArrow=none;dashed=1;html=1;rounded=0;" edge="1" parent="1">
          <mxGeometry width="50" height="50" relative="1" as="geometry">
            <mxPoint x="635" y="-682" as="sourcePoint" />
            <mxPoint x="125" y="-682" as="targetPoint" />
          </mxGeometry>
        </mxCell>
        <mxCell id="aqkRpfTvIbTsVpuNfiw0-29" value="&lt;p style=&quot;margin: 0pt 0px; padding: 0px; text-align: justify; line-height: 21.3333px; font-family: 바탕;&quot; class=&quot;HStyle0&quot;&gt;&lt;span style=&quot;margin: 0px; padding: 0px; position: relative; font-family: &amp;quot;맑은 고딕&amp;quot;; line-height: 23.4667px;&quot;&gt;&lt;font style=&quot;font-size: 12px;&quot;&gt;&lt;b&gt;(상의 이미지, 하의 이미지, 기타 프롬프트)&lt;/b&gt;&lt;/font&gt;&lt;/span&gt;&lt;/p&gt;&lt;div style=&quot;margin: 0px; padding: 0px; font-size: medium; text-align: start;&quot; data-jsonlen=&quot;5596&quot; data-hjsonver=&quot;1.0&quot; id=&quot;hwpEditorBoardContent&quot;&gt;&lt;/div&gt;" style="text;html=1;align=center;verticalAlign=middle;whiteSpace=wrap;rounded=0;" vertex="1" parent="1">
          <mxGeometry x="395" y="-867" width="150" height="30" as="geometry" />
        </mxCell>
      </root>
    </mxGraphModel>
  </diagram>
</mxfile>
